# xmcd CD database file
#
# Track frame offsets:
#	150
#	79367
#	99701
#	112471
#	144008
#	188102
#	213899
#	234271
#
# Disc length: 3382 seconds
#
# Revision: 0
# Processed by: cddbd v1.5.1PL0 Copyright (c) Steve Scherf et al.
# Submitted via: CDex 1.51
#
DISCID=6a0d3408
DTITLE=Omnibus - Impulse Vol.1
DYEAR=1900
DGENRE=Jazz
TTITLE0=My favorite things/John Coltrane
TTITLE1=Big nick/John Coltrane
TTITLE2=It's easy to remember/John Coltrane
TTITLE3=Chim Chim Cheree/John Coltrane
TTITLE4=Alfie/Sonny Rollins
TTITLE5=We kiss in the shadow/Sonny Rollins
TTITLE6=Inception/McCoy Tyer
TTITLE7=Reaching fourth/McCoy Tyner
EXTD=
EXTT0=
EXTT1=
EXTT2=
EXTT3=
EXTT4=
EXTT5=
EXTT6=
EXTT7=
PLAYORDER=
